<svg width="1035" height="215" viewBox="0 0 1035 215" fill="none" xmlns="http://www.w3.org/2000/svg">
<path fill-rule="evenodd" clip-rule="evenodd" d="M1501.41 159.538L1475.69 129.443C1449.98 99.3479 1398.54 39.1573 1333.16 43.4131C1267.78 47.6689 1188.46 116.371 1114.21 161.638C1039.96 206.906 970.784 228.738 911.743 203.7C852.702 178.662 803.8 106.754 743.492 87.5745C683.184 68.3952 611.469 101.945 556.23 59.3306C500.992 16.7163 462.229 -102.062 408.258 -150.535C354.287 -199.008 285.107 -177.176 214.659 -149.485C144.212 -121.794 72.4966 -88.2445 36.6392 -71.4696L0.781678 -54.6948L54.0128 -300.763L84.8007 -294.103C115.588 -287.443 177.164 -274.122 238.74 -260.802C300.316 -247.481 361.891 -234.161 423.467 -220.84C485.043 -207.52 546.618 -194.199 608.194 -180.879C669.77 -167.558 731.345 -154.238 792.921 -140.918C854.497 -127.597 916.072 -114.277 977.648 -100.956C1039.22 -87.6357 1100.8 -74.3152 1162.38 -60.9947C1223.95 -47.6743 1285.53 -34.3538 1347.1 -21.0333C1408.68 -7.71288 1470.25 5.60758 1501.04 12.2678L1531.83 18.928L1501.41 159.538Z" fill="url(#paint0_linear_654_285)"/>
<defs>
<linearGradient id="paint0_linear_654_285" x1="726.53" y1="165.984" x2="792.921" y2="-140.918" gradientUnits="userSpaceOnUse">
<stop stop-color="#FD810E"/>
<stop offset="1" stop-color="#0099FF"/>
</linearGradient>
</defs>
</svg>
